<?xml version="1.0" encoding="UTF-8"?>
<svg width="155px" height="119px" viewBox="0 0 155 119" version="1.1" xmlns="http://www.w3.org/2000/svg" xmlns:xlink="http://www.w3.org/1999/xlink">
    <!-- Generator: Sketch 61 (89581) - https://sketch.com -->
    <title>Combined-Shape</title>
    <desc>Created with Sketch.</desc>
    <g id="Page-1" stroke="none" stroke-width="1" fill="none" fill-rule="evenodd">
        <g id="LogoTailor" fill="#0F1C51" fill-rule="nonzero">
            <path d="M119.2,119 L119.6,117.7 C119.7,117.2 119.9,116.7 119.9,116.2 C120.1,115.3 120.2,114.1 120.2,112.8 C120.2,110.3 119.6,108.3 118.4,107 C117.2,105.7 115,105 111.7,105 L97,105 C93.8,105 91.1,104.6 88.9,103.8 C86.7,103 84.8,102 83.3,100.7 C81.8,99.4 80.6,98.1 79.7,96.6 C79.1,95.7 78.6,94.8 78.2,93.8 C77.8,94.7 77.3,95.6 76.8,96.5 C75.9,98 74.7,99.4 73.2,100.6 C71.7,101.9 69.8,102.9 67.5,103.7 C65.2,104.5 62.5,104.9 59.3,104.9 L45.5,104.9 C42.2,104.9 39.9,105.6 38.8,106.9 C37.6,108.2 37,110.2 37,112.7 C37,113.3 37,114 37.1,114.5 C37.2,115.1 37.3,115.5 37.4,115.9 C37.6,116.5 37.7,117.1 37.8,117.6 L38,118.7 L25.3,115.6 L25.2,115.1 C25.1,114.6 25,114.1 24.9,113.5 C24.8,112.9 24.7,112.2 24.6,111.4 C24.5,110.6 24.5,109.7 24.5,108.8 C24.5,106.2 24.9,103.8 25.6,101.7 C26.3,99.5 27.5,97.7 29,96.1 C30.5,94.5 32.5,93.3 35,92.4 C37.4,91.5 40.3,91.1 43.7,91.1 L58,91.1 C60.6,91.1 62.8,90.8 64.5,90.2 C66.2,89.6 67.5,88.8 68.6,87.9 C69.6,86.9 70.5,85.7 71.1,84.4 C71.7,83 72.3,81.5 72.7,79.9 L72.9,79.3 L83.9,79.3 L84.1,79.9 C84.6,81.5 85.1,83 85.7,84.4 C86.3,85.7 87.1,86.9 88.2,87.9 C89.2,88.9 90.6,89.7 92.3,90.2 C94,90.8 96.2,91.1 98.8,91.1 L114.1,91.1 C117.5,91.1 120.5,91.5 122.8,92.4 C125.2,93.3 127.2,94.5 128.8,96.1 C130.3,97.7 131.5,99.5 132.2,101.7 C132.9,103.8 133.3,106.2 133.3,108.8 C133.3,109.7 133.3,110.6 133.2,111.3 C133.2,112.1 133.1,112.8 133,113.3 C132.9,113.9 132.8,114.6 132.6,115.1 L132.5,115.5 L119.2,119 Z M26.6,114.6 L36,116.9 C36,116.8 35.9,116.7 35.9,116.6 C35.7,116.1 35.6,115.6 35.5,114.9 C35.4,114.3 35.4,113.6 35.4,112.9 C35.4,110 36.1,107.7 37.6,106.1 C39.1,104.4 41.7,103.6 45.5,103.6 L59.3,103.6 C62.3,103.6 64.9,103.2 67,102.5 C69.1,101.8 70.8,100.8 72.2,99.7 C73.6,98.5 74.6,97.3 75.4,96 C76.2,94.6 76.8,93.3 77.3,92 L77.5,91.5 L78.9,91.5 L79.1,92 C79.6,93.3 80.2,94.7 81.1,96 C81.9,97.3 83,98.6 84.4,99.8 C85.8,101 87.5,101.9 89.5,102.6 C91.5,103.3 94.1,103.7 97.1,103.7 L111.9,103.7 C115.7,103.7 118.3,104.5 119.8,106.2 C121.2,107.8 122,110.1 122,113 C122,114.5 121.9,115.7 121.6,116.7 C121.6,116.8 121.6,116.9 121.5,117.1 L130.9,114.8 C131,114.4 131.1,114 131.1,113.6 C131.2,113.1 131.2,112.5 131.3,111.7 C131.3,111 131.4,110.1 131.4,109.2 C131.4,106.8 131.1,104.6 130.4,102.6 C129.8,100.7 128.7,99 127.4,97.6 C126,96.2 124.2,95.1 122,94.3 C119.8,93.5 117,93.1 113.8,93.1 L98.4,93.1 C95.6,93.1 93.3,92.8 91.4,92.1 C89.5,91.5 88,90.6 86.8,89.4 C85.6,88.3 84.7,86.9 84,85.5 C83.4,84.2 82.9,82.8 82.5,81.3 L73.9,81.3 C73.5,82.8 72.9,84.2 72.4,85.5 C71.7,87 70.8,88.3 69.6,89.4 C68.4,90.5 66.8,91.4 65,92.1 C63.1,92.7 60.8,93.1 58,93.1 L43.6,93.1 C40.4,93.1 37.6,93.5 35.4,94.3 C33.2,95.1 31.4,96.2 30,97.6 C28.6,99 27.6,100.7 27,102.6 C26.4,104.6 26,106.8 26,109.2 C26,110.1 26,110.9 26.1,111.6 C26.2,112.3 26.3,113 26.3,113.5 C26.4,113.8 26.5,114.2 26.6,114.6 Z M9.1,41.3 L17.4,30.9 L62,67 L59,78.9 L58.5,79 L2.3,90.4 L0,77.1 L44.4,69 L9.1,41.3 Z M1.8,78.3 L3.6,88.5 L57.7,77.6 L60.2,67.6 L17.6,33.1 L11.2,41.1 L48,70 L1.8,78.3 Z M91.4,63.8 L80.5,58.5 L80.1,0.4 L93.4,0.7 L92.8,46 L126.4,16.7 L134.9,27 L91.4,63.8 Z M82,57.5 L91.2,62 L132.8,26.9 L126.3,19 L91.3,49.5 L91.9,2.3 L81.6,2 L82,57.5 Z M63.8,61.7 L19.9,25.8 L28.8,15.7 L62.4,44.4 L62.1,0.2 L75.3,0 L74.8,56.6 L63.8,61.7 Z M22.1,25.6 L64,59.9 L73.3,55.6 L73.8,1.6 L63.6,1.7 L64,47.8 L29,17.9 L22.1,25.6 Z M152.5,90.4 L96,78.8 L93,66.9 L137.7,30.8 L146.1,41.5 L110.6,69 L155,77.3 L152.5,90.4 Z M97.3,77.5 L151.3,88.5 L153.2,78.5 L107,69.8 L144,41.2 L137.6,33 L94.8,67.5 L97.3,77.5 Z" id="Combined-Shape"></path>
        </g>
    </g>
</svg>