<?xml version="1.0" encoding="utf-8"?>
<!-- Generator: Adobe Illustrator 23.0.1, SVG Export Plug-In . SVG Version: 6.00 Build 0)  -->
<svg version="1.1" id="Capa_1" xmlns="http://www.w3.org/2000/svg" xmlns:xlink="http://www.w3.org/1999/xlink" x="0px" y="0px"
	 viewBox="0 0 155 119" style="enable-background:new 0 0 155 119;" xml:space="preserve">
<style type="text/css">
	.st0{fill:#FFFFFF;}
</style>
<title>blueLogoTailor</title>
<desc>Created with Sketch.</desc>
<g id="Page-1">
	<g id="blueLogoTailor">
		<path id="Combined-Shape" class="st0" d="M119.2,119l0.4-1.3c0.1-0.5,0.3-1,0.3-1.5c0.2-0.9,0.3-2.1,0.3-3.4
			c0-2.5-0.6-4.5-1.8-5.8c-1.2-1.3-3.4-2-6.7-2H97c-3.2,0-5.9-0.4-8.1-1.2c-2.2-0.8-4.1-1.8-5.6-3.1c-1.5-1.3-2.7-2.6-3.6-4.1
			c-0.6-0.9-1.1-1.8-1.5-2.8c-0.4,0.9-0.9,1.8-1.4,2.7c-0.9,1.5-2.1,2.9-3.6,4.1c-1.5,1.3-3.4,2.3-5.7,3.1c-2.3,0.8-5,1.2-8.2,1.2
			H45.5c-3.3,0-5.6,0.7-6.7,2c-1.2,1.3-1.8,3.3-1.8,5.8c0,0.6,0,1.3,0.1,1.8c0.1,0.6,0.2,1,0.3,1.4c0.2,0.6,0.3,1.2,0.4,1.7l0.2,1.1
			l-12.7-3.1l-0.1-0.5c-0.1-0.5-0.2-1-0.3-1.6c-0.1-0.6-0.2-1.3-0.3-2.1c-0.1-0.8-0.1-1.7-0.1-2.6c0-2.6,0.4-5,1.1-7.1
			c0.7-2.2,1.9-4,3.4-5.6c1.5-1.6,3.5-2.8,6-3.7c2.4-0.9,5.3-1.3,8.7-1.3h14.3c2.6,0,4.8-0.3,6.5-0.9c1.7-0.6,3-1.4,4.1-2.3
			c1-1,1.9-2.2,2.5-3.5c0.6-1.4,1.2-2.9,1.6-4.5l0.2-0.6h11l0.2,0.6c0.5,1.6,1,3.1,1.6,4.5c0.6,1.3,1.4,2.5,2.5,3.5
			c1,1,2.4,1.8,4.1,2.3c1.7,0.6,3.9,0.9,6.5,0.9h15.3c3.4,0,6.4,0.4,8.7,1.3c2.4,0.9,4.4,2.1,6,3.7c1.5,1.6,2.7,3.4,3.4,5.6
			c0.7,2.1,1.1,4.5,1.1,7.1c0,0.9,0,1.8-0.1,2.5c0,0.8-0.1,1.5-0.2,2c-0.1,0.6-0.2,1.3-0.4,1.8l-0.1,0.4L119.2,119z M26.6,114.6
			l9.4,2.3c0-0.1-0.1-0.2-0.1-0.3c-0.2-0.5-0.3-1-0.4-1.7c-0.1-0.6-0.1-1.3-0.1-2c0-2.9,0.7-5.2,2.2-6.8c1.5-1.7,4.1-2.5,7.9-2.5
			h13.8c3,0,5.6-0.4,7.7-1.1c2.1-0.7,3.8-1.7,5.2-2.8c1.4-1.2,2.4-2.4,3.2-3.7c0.8-1.4,1.4-2.7,1.9-4l0.2-0.5h1.4l0.2,0.5
			c0.5,1.3,1.1,2.7,2,4c0.8,1.3,1.9,2.6,3.3,3.8c1.4,1.2,3.1,2.1,5.1,2.8c2,0.7,4.6,1.1,7.6,1.1h14.8c3.8,0,6.4,0.8,7.9,2.5
			c1.4,1.6,2.2,3.9,2.2,6.8c0,1.5-0.1,2.7-0.4,3.7c0,0.1,0,0.2-0.1,0.4l9.4-2.3c0.1-0.4,0.2-0.8,0.2-1.2c0.1-0.5,0.1-1.1,0.2-1.9
			c0-0.7,0.1-1.6,0.1-2.5c0-2.4-0.3-4.6-1-6.6c-0.6-1.9-1.7-3.6-3-5c-1.4-1.4-3.2-2.5-5.4-3.3c-2.2-0.8-5-1.2-8.2-1.2H98.4
			c-2.8,0-5.1-0.3-7-1c-1.9-0.6-3.4-1.5-4.6-2.7c-1.2-1.1-2.1-2.5-2.8-3.9c-0.6-1.3-1.1-2.7-1.5-4.2h-8.6c-0.4,1.5-1,2.9-1.5,4.2
			c-0.7,1.5-1.6,2.8-2.8,3.9c-1.2,1.1-2.8,2-4.6,2.7c-1.9,0.6-4.2,1-7,1H43.6c-3.2,0-6,0.4-8.2,1.2c-2.2,0.8-4,1.9-5.4,3.3
			c-1.4,1.4-2.4,3.1-3,5c-0.6,2-1,4.2-1,6.6c0,0.9,0,1.7,0.1,2.4c0.1,0.7,0.2,1.4,0.2,1.9C26.4,113.8,26.5,114.2,26.6,114.6z
			 M9.1,41.3l8.3-10.4L62,67l-3,11.9L58.5,79L2.3,90.4L0,77.1L44.4,69L9.1,41.3z M1.8,78.3l1.8,10.2l54.1-10.9l2.5-10L17.6,33.1
			l-6.4,8l36.8,28.9L1.8,78.3z M91.4,63.8l-10.9-5.3L80.1,0.4l13.3,0.3L92.8,46l33.6-29.3l8.5,10.3L91.4,63.8z M82,57.5l9.2,4.5
			l41.6-35.1l-6.5-7.9l-35,30.5l0.6-47.2L81.6,2L82,57.5z M63.8,61.7L19.9,25.8l8.9-10.1l33.6,28.7L62.1,0.2L75.3,0l-0.5,56.6
			L63.8,61.7z M22.1,25.6L64,59.9l9.3-4.3l0.5-54L63.6,1.7L64,47.8l-35-29.9L22.1,25.6z M152.5,90.4L96,78.8l-3-11.9l44.7-36.1
			l8.4,10.7L110.6,69l44.4,8.3L152.5,90.4z M97.3,77.5l54,11l1.9-10l-46.2-8.7l37-28.6l-6.4-8.2L94.8,67.5L97.3,77.5z"/>
	</g>
</g>
</svg>
